<?xml version="1.0" encoding="us-ascii" standalone="no"?><svg xmlns="http://www.w3.org/2000/svg" xmlns:xlink="http://www.w3.org/1999/xlink" contentStyleType="text/css" height="1041px" preserveAspectRatio="none" style="width:1533px;height:1041px;background:#FFFFFF;" version="1.1" viewBox="0 0 1533 1041" width="1533px" zoomAndPan="magnify"><defs/><g><text fill="#000000" font-family="sans-serif" font-size="14" font-weight="bold" lengthAdjust="spacing" textLength="574.4375" x="478.2188" y="34.5332">Diagramme d'Activit&#233; &#8212; Gestion des inscriptions (ManageRegistrationViewModel)</text><ellipse cx="1046.625" cy="58.6094" fill="#222222" rx="10" ry="10" style="stroke:#222222;stroke-width:1.0;"/><rect fill="#F1F1F1" height="35.0938" rx="12.5" ry="12.5" style="stroke:#181818;stroke-width:0.5;" width="158" x="967.625" y="88.6094"/><text fill="#000000" font-family="sans-serif" font-size="12" lengthAdjust="spacing" textLength="138" x="977.625" y="111.0664">Afficher liste des tournois</text><polygon fill="#F1F1F1" points="995.125,143.7031,1098.125,143.7031,1110.125,155.7031,1098.125,167.7031,995.125,167.7031,983.125,155.7031,995.125,143.7031" style="stroke:#181818;stroke-width:0.5;"/><text fill="#000000" font-family="sans-serif" font-size="11" lengthAdjust="spacing" textLength="103" x="995.125" y="160.2041">Tournoi s&#233;lectionn&#233; ?</text><text fill="#000000" font-family="sans-serif" font-size="11" lengthAdjust="spacing" textLength="14" x="969.125" y="153.2861">oui</text><text fill="#000000" font-family="sans-serif" font-size="11" lengthAdjust="spacing" textLength="18" x="1110.125" y="153.2861">non</text><rect fill="#F1F1F1" height="50.1875" rx="12.5" ry="12.5" style="stroke:#181818;stroke-width:0.5;" width="238" x="515.875" y="177.7031"/><text fill="#000000" font-family="sans-serif" font-size="12" lengthAdjust="spacing" textLength="171" x="525.875" y="200.1602">Charger inscriptions existantes</text><text fill="#000000" font-family="sans-serif" font-size="12" lengthAdjust="spacing" textLength="218" x="525.875" y="215.2539">LoadRegistration(SelectedTournament)</text><rect fill="#F1F1F1" height="35.0938" rx="12.5" ry="12.5" style="stroke:#181818;stroke-width:0.5;" width="238" x="515.875" y="247.8906"/><text fill="#000000" font-family="sans-serif" font-size="12" lengthAdjust="spacing" textLength="218" x="525.875" y="270.3477">Naviguer vers ManageRegistrationPage</text><rect fill="#F1F1F1" height="50.1875" rx="12.5" ry="12.5" style="stroke:#181818;stroke-width:0.5;" width="148" x="560.875" y="346.9844"/><text fill="#000000" font-family="sans-serif" font-size="12" lengthAdjust="spacing" textLength="128" x="570.875" y="369.4414">Afficher joueurs inscrits</text><text fill="#000000" font-family="sans-serif" font-size="12" lengthAdjust="spacing" textLength="108" x="570.875" y="384.5352">+ actions possibles</text><polygon fill="#F1F1F1" points="574.875,417.1719,694.875,417.1719,706.875,429.1719,694.875,441.1719,574.875,441.1719,562.875,429.1719,574.875,417.1719" style="stroke:#181818;stroke-width:0.5;"/><text fill="#000000" font-family="sans-serif" font-size="11" lengthAdjust="spacing" textLength="120" x="574.875" y="433.6729">Action = Ajouter joueur ?</text><text fill="#000000" font-family="sans-serif" font-size="11" lengthAdjust="spacing" textLength="14" x="548.875" y="426.7549">oui</text><text fill="#000000" font-family="sans-serif" font-size="11" lengthAdjust="spacing" textLength="18" x="706.875" y="426.7549">non</text><polygon fill="#F1F1F1" points="200,451.1719,285,451.1719,297,463.1719,285,475.1719,200,475.1719,188,463.1719,200,451.1719" style="stroke:#181818;stroke-width:0.5;"/><text fill="#000000" font-family="sans-serif" font-size="11" lengthAdjust="spacing" textLength="85" x="200" y="467.6729">Tournoi complet ?</text><text fill="#000000" font-family="sans-serif" font-size="11" lengthAdjust="spacing" textLength="14" x="174" y="460.7549">oui</text><text fill="#000000" font-family="sans-serif" font-size="11" lengthAdjust="spacing" textLength="18" x="297" y="460.7549">non</text><rect fill="#F1F1F1" height="65.2813" rx="12.5" ry="12.5" style="stroke:#181818;stroke-width:0.5;" width="153" x="11" y="485.1719"/><text fill="#000000" font-family="sans-serif" font-size="12" lengthAdjust="spacing" textLength="74" x="21" y="507.6289">Refuser ajout</text><text fill="#000000" font-family="sans-serif" font-size="12" lengthAdjust="spacing" textLength="133" x="21" y="522.7227">(CanAddPlayers = false)</text><text fill="#000000" font-family="sans-serif" font-size="12" lengthAdjust="spacing" textLength="70" x="24" y="537.8164">Bouton gris&#233;</text><rect fill="#F1F1F1" height="35.0938" rx="12.5" ry="12.5" style="stroke:#181818;stroke-width:0.5;" width="308" x="260.625" y="485.1719"/><text fill="#000000" font-family="sans-serif" font-size="12" lengthAdjust="spacing" textLength="288" x="270.625" y="507.6289">Calculer Remaining_players (Playerlist - List_player)</text><rect fill="#F1F1F1" height="35.0938" rx="12.5" ry="12.5" style="stroke:#181818;stroke-width:0.5;" width="183" x="323.125" y="555.2656"/><text fill="#000000" font-family="sans-serif" font-size="12" lengthAdjust="spacing" textLength="163" x="333.125" y="577.7227">Naviguer vers ChoosePlayers</text><polygon fill="#F1F1F1" points="378.125,625.3594,451.125,625.3594,463.125,637.3594,451.125,649.3594,378.125,649.3594,366.125,637.3594,378.125,625.3594" style="stroke:#181818;stroke-width:0.5;"/><text fill="#000000" font-family="sans-serif" font-size="11" lengthAdjust="spacing" textLength="73" x="378.125" y="641.8604">Joueur choisi ?</text><text fill="#000000" font-family="sans-serif" font-size="11" lengthAdjust="spacing" textLength="14" x="352.125" y="634.9424">oui</text><text fill="#000000" font-family="sans-serif" font-size="11" lengthAdjust="spacing" textLength="18" x="463.125" y="634.9424">non</text><rect fill="#F1F1F1" height="35.0938" rx="12.5" ry="12.5" style="stroke:#181818;stroke-width:0.5;" width="223" x="194.375" y="659.3594"/><text fill="#000000" font-family="sans-serif" font-size="12" lengthAdjust="spacing" textLength="203" x="204.375" y="681.8164">Ajouter SelectedPlayers &#224; List_player</text><rect fill="#F1F1F1" height="50.1875" rx="12.5" ry="12.5" style="stroke:#181818;stroke-width:0.5;" width="258" x="176.875" y="719.4531"/><text fill="#000000" font-family="sans-serif" font-size="12" lengthAdjust="spacing" textLength="137" x="186.875" y="741.9102">Sauvegarder inscriptions</text><text fill="#000000" font-family="sans-serif" font-size="12" lengthAdjust="spacing" textLength="238" x="186.875" y="757.0039">ModifyRegistration(tournament, List_player)</text><rect fill="#F1F1F1" height="35.0938" rx="12.5" ry="12.5" style="stroke:#181818;stroke-width:0.5;" width="200" x="205.875" y="789.6406"/><text fill="#000000" font-family="sans-serif" font-size="12" lengthAdjust="spacing" textLength="180" x="215.875" y="812.0977">Retour ManageRegistrationPage</text><rect fill="#F1F1F1" height="35.0938" rx="12.5" ry="12.5" style="stroke:#181818;stroke-width:0.5;" width="137" x="454.875" y="659.3594"/><text fill="#000000" font-family="sans-serif" font-size="12" lengthAdjust="spacing" textLength="117" x="464.875" y="681.8164">Aucune action/ quitter</text><polygon fill="#F1F1F1" points="414.625,830.7344,426.625,842.7344,414.625,854.7344,402.625,842.7344,414.625,830.7344" style="stroke:#181818;stroke-width:0.5;"/><polygon fill="#F1F1F1" points="242.5,860.7344,254.5,872.7344,242.5,884.7344,230.5,872.7344,242.5,860.7344" style="stroke:#181818;stroke-width:0.5;"/><polygon fill="#F1F1F1" points="960.25,451.1719,1094.25,451.1719,1106.25,463.1719,1094.25,475.1719,960.25,475.1719,948.25,463.1719,960.25,451.1719" style="stroke:#181818;stroke-width:0.5;"/><text fill="#000000" font-family="sans-serif" font-size="11" lengthAdjust="spacing" textLength="134" x="960.25" y="467.6729">Action = Supprimer joueur ?</text><text fill="#000000" font-family="sans-serif" font-size="11" lengthAdjust="spacing" textLength="14" x="934.25" y="460.7549">oui</text><text fill="#000000" font-family="sans-serif" font-size="11" lengthAdjust="spacing" textLength="18" x="1106.25" y="460.7549">non</text><polygon fill="#F1F1F1" points="797.125,485.1719,897.125,485.1719,909.125,497.1719,897.125,509.1719,797.125,509.1719,785.125,497.1719,797.125,485.1719" style="stroke:#181818;stroke-width:0.5;"/><text fill="#000000" font-family="sans-serif" font-size="11" lengthAdjust="spacing" textLength="100" x="797.125" y="501.6729">SelectedPlayer null ?</text><text fill="#000000" font-family="sans-serif" font-size="11" lengthAdjust="spacing" textLength="14" x="771.125" y="494.7549">oui</text><text fill="#000000" font-family="sans-serif" font-size="11" lengthAdjust="spacing" textLength="18" x="909.125" y="494.7549">non</text><rect fill="#F1F1F1" height="65.2813" rx="12.5" ry="12.5" style="stroke:#181818;stroke-width:0.5;" width="161" x="651.875" y="519.1719"/><text fill="#000000" font-family="sans-serif" font-size="12" lengthAdjust="spacing" textLength="62" x="661.875" y="541.6289">Impossible</text><text fill="#000000" font-family="sans-serif" font-size="12" lengthAdjust="spacing" textLength="141" x="661.875" y="556.7227">(CanDeletePlayer = false)</text><text fill="#000000" font-family="sans-serif" font-size="12" lengthAdjust="spacing" textLength="70" x="661.875" y="571.8164">Bouton gris&#233;</text><rect fill="#F1F1F1" height="35.0938" rx="12.5" ry="12.5" style="stroke:#181818;stroke-width:0.5;" width="222" x="850.875" y="519.1719"/><text fill="#000000" font-family="sans-serif" font-size="12" lengthAdjust="spacing" textLength="202" x="860.875" y="541.6289">Retirer SelectedPlayer de List_player</text><rect fill="#F1F1F1" height="50.1875" rx="12.5" ry="12.5" style="stroke:#181818;stroke-width:0.5;" width="258" x="832.875" y="589.2656"/><text fill="#000000" font-family="sans-serif" font-size="12" lengthAdjust="spacing" textLength="137" x="842.875" y="611.7227">Sauvegarder inscriptions</text><text fill="#000000" font-family="sans-serif" font-size="12" lengthAdjust="spacing" textLength="238" x="842.875" y="626.8164">ModifyRegistration(tournament, List_player)</text><polygon fill="#F1F1F1" points="847.125,645.4531,859.125,657.4531,847.125,669.4531,835.125,657.4531,847.125,645.4531" style="stroke:#181818;stroke-width:0.5;"/><rect fill="#F1F1F1" height="35.0938" rx="12.5" ry="12.5" style="stroke:#181818;stroke-width:0.5;" width="173" x="1120.875" y="485.1719"/><text fill="#000000" font-family="sans-serif" font-size="12" lengthAdjust="spacing" textLength="153" x="1130.875" y="507.6289">Aucune action / Quitter page</text><polygon fill="#F1F1F1" points="1027.25,675.4531,1039.25,687.4531,1027.25,699.4531,1015.25,687.4531,1027.25,675.4531" style="stroke:#181818;stroke-width:0.5;"/><polygon fill="#F1F1F1" points="634.875,890.7344,646.875,902.7344,634.875,914.7344,622.875,902.7344,634.875,890.7344" style="stroke:#181818;stroke-width:0.5;"/><polygon fill="#F1F1F1" points="634.875,302.9844,646.875,314.9844,634.875,326.9844,622.875,314.9844,634.875,302.9844" style="stroke:#181818;stroke-width:0.5;"/><polygon fill="#F1F1F1" points="588.375,934.7344,681.375,934.7344,693.375,946.7344,681.375,958.7344,588.375,958.7344,576.375,946.7344,588.375,934.7344" style="stroke:#181818;stroke-width:0.5;"/><text fill="#000000" font-family="sans-serif" font-size="11" lengthAdjust="spacing" textLength="93" x="588.375" y="951.2354">Continuer gestion ?</text><text fill="#000000" font-family="sans-serif" font-size="11" lengthAdjust="spacing" textLength="14" x="693.375" y="944.3174">oui</text><rect fill="#F1F1F1" height="35.0938" rx="12.5" ry="12.5" style="stroke:#181818;stroke-width:0.5;" width="201" x="1321.875" y="177.7031"/><text fill="#000000" font-family="sans-serif" font-size="12" lengthAdjust="spacing" textLength="181" x="1331.875" y="200.1602">Rien &#224; faire (boutons d&#233;sactiv&#233;s)</text><polygon fill="#F1F1F1" points="1046.625,964.7344,1058.625,976.7344,1046.625,988.7344,1034.625,976.7344,1046.625,964.7344" style="stroke:#181818;stroke-width:0.5;"/><ellipse cx="1046.625" cy="1019.7344" fill="none" rx="11" ry="11" style="stroke:#222222;stroke-width:1.0;"/><ellipse cx="1046.625" cy="1019.7344" fill="#222222" rx="6" ry="6" style="stroke:#222222;stroke-width:1.0;"/><line style="stroke:#181818;stroke-width:1.0;" x1="1046.625" x2="1046.625" y1="68.6094" y2="88.6094"/><polygon fill="#181818" points="1042.625,78.6094,1046.625,88.6094,1050.625,78.6094,1046.625,82.6094" style="stroke:#181818;stroke-width:1.0;"/><line style="stroke:#181818;stroke-width:1.0;" x1="634.875" x2="634.875" y1="227.8906" y2="247.8906"/><polygon fill="#181818" points="630.875,237.8906,634.875,247.8906,638.875,237.8906,634.875,241.8906" style="stroke:#181818;stroke-width:1.0;"/><line style="stroke:#181818;stroke-width:1.0;" x1="414.625" x2="414.625" y1="520.2656" y2="555.2656"/><polygon fill="#181818" points="410.625,545.2656,414.625,555.2656,418.625,545.2656,414.625,549.2656" style="stroke:#181818;stroke-width:1.0;"/><line style="stroke:#181818;stroke-width:1.0;" x1="305.875" x2="305.875" y1="694.4531" y2="719.4531"/><polygon fill="#181818" points="301.875,709.4531,305.875,719.4531,309.875,709.4531,305.875,713.4531" style="stroke:#181818;stroke-width:1.0;"/><line style="stroke:#181818;stroke-width:1.0;" x1="305.875" x2="305.875" y1="769.6406" y2="789.6406"/><polygon fill="#181818" points="301.875,779.6406,305.875,789.6406,309.875,779.6406,305.875,783.6406" style="stroke:#181818;stroke-width:1.0;"/><line style="stroke:#181818;stroke-width:1.0;" x1="366.125" x2="305.875" y1="637.3594" y2="637.3594"/><line style="stroke:#181818;stroke-width:1.0;" x1="305.875" x2="305.875" y1="637.3594" y2="659.3594"/><polygon fill="#181818" points="301.875,649.3594,305.875,659.3594,309.875,649.3594,305.875,653.3594" style="stroke:#181818;stroke-width:1.0;"/><line style="stroke:#181818;stroke-width:1.0;" x1="463.125" x2="523.375" y1="637.3594" y2="637.3594"/><line style="stroke:#181818;stroke-width:1.0;" x1="523.375" x2="523.375" y1="637.3594" y2="659.3594"/><polygon fill="#181818" points="519.375,649.3594,523.375,659.3594,527.375,649.3594,523.375,653.3594" style="stroke:#181818;stroke-width:1.0;"/><line style="stroke:#181818;stroke-width:1.0;" x1="305.875" x2="305.875" y1="824.7344" y2="842.7344"/><line style="stroke:#181818;stroke-width:1.0;" x1="305.875" x2="402.625" y1="842.7344" y2="842.7344"/><polygon fill="#181818" points="392.625,838.7344,402.625,842.7344,392.625,846.7344,396.625,842.7344" style="stroke:#181818;stroke-width:1.0;"/><line style="stroke:#181818;stroke-width:1.0;" x1="523.375" x2="523.375" y1="694.4531" y2="842.7344"/><line style="stroke:#181818;stroke-width:1.0;" x1="523.375" x2="426.625" y1="842.7344" y2="842.7344"/><polygon fill="#181818" points="436.625,838.7344,426.625,842.7344,436.625,846.7344,432.625,842.7344" style="stroke:#181818;stroke-width:1.0;"/><line style="stroke:#181818;stroke-width:1.0;" x1="414.625" x2="414.625" y1="590.3594" y2="625.3594"/><polygon fill="#181818" points="410.625,615.3594,414.625,625.3594,418.625,615.3594,414.625,619.3594" style="stroke:#181818;stroke-width:1.0;"/><line style="stroke:#181818;stroke-width:1.0;" x1="188" x2="87.5" y1="463.1719" y2="463.1719"/><line style="stroke:#181818;stroke-width:1.0;" x1="87.5" x2="87.5" y1="463.1719" y2="485.1719"/><polygon fill="#181818" points="83.5,475.1719,87.5,485.1719,91.5,475.1719,87.5,479.1719" style="stroke:#181818;stroke-width:1.0;"/><line style="stroke:#181818;stroke-width:1.0;" x1="297" x2="414.625" y1="463.1719" y2="463.1719"/><line style="stroke:#181818;stroke-width:1.0;" x1="414.625" x2="414.625" y1="463.1719" y2="485.1719"/><polygon fill="#181818" points="410.625,475.1719,414.625,485.1719,418.625,475.1719,414.625,479.1719" style="stroke:#181818;stroke-width:1.0;"/><line style="stroke:#181818;stroke-width:1.0;" x1="87.5" x2="87.5" y1="550.4531" y2="872.7344"/><line style="stroke:#181818;stroke-width:1.0;" x1="87.5" x2="230.5" y1="872.7344" y2="872.7344"/><polygon fill="#181818" points="220.5,868.7344,230.5,872.7344,220.5,876.7344,224.5,872.7344" style="stroke:#181818;stroke-width:1.0;"/><line style="stroke:#181818;stroke-width:1.0;" x1="414.625" x2="414.625" y1="854.7344" y2="872.7344"/><line style="stroke:#181818;stroke-width:1.0;" x1="414.625" x2="254.5" y1="872.7344" y2="872.7344"/><polygon fill="#181818" points="264.5,868.7344,254.5,872.7344,264.5,876.7344,260.5,872.7344" style="stroke:#181818;stroke-width:1.0;"/><line style="stroke:#181818;stroke-width:1.0;" x1="961.875" x2="961.875" y1="554.2656" y2="589.2656"/><polygon fill="#181818" points="957.875,579.2656,961.875,589.2656,965.875,579.2656,961.875,583.2656" style="stroke:#181818;stroke-width:1.0;"/><line style="stroke:#181818;stroke-width:1.0;" x1="785.125" x2="732.375" y1="497.1719" y2="497.1719"/><line style="stroke:#181818;stroke-width:1.0;" x1="732.375" x2="732.375" y1="497.1719" y2="519.1719"/><polygon fill="#181818" points="728.375,509.1719,732.375,519.1719,736.375,509.1719,732.375,513.1719" style="stroke:#181818;stroke-width:1.0;"/><line style="stroke:#181818;stroke-width:1.0;" x1="909.125" x2="961.875" y1="497.1719" y2="497.1719"/><line style="stroke:#181818;stroke-width:1.0;" x1="961.875" x2="961.875" y1="497.1719" y2="519.1719"/><polygon fill="#181818" points="957.875,509.1719,961.875,519.1719,965.875,509.1719,961.875,513.1719" style="stroke:#181818;stroke-width:1.0;"/><line style="stroke:#181818;stroke-width:1.0;" x1="732.375" x2="732.375" y1="584.4531" y2="657.4531"/><line style="stroke:#181818;stroke-width:1.0;" x1="732.375" x2="835.125" y1="657.4531" y2="657.4531"/><polygon fill="#181818" points="825.125,653.4531,835.125,657.4531,825.125,661.4531,829.125,657.4531" style="stroke:#181818;stroke-width:1.0;"/><line style="stroke:#181818;stroke-width:1.0;" x1="961.875" x2="961.875" y1="639.4531" y2="657.4531"/><line style="stroke:#181818;stroke-width:1.0;" x1="961.875" x2="859.125" y1="657.4531" y2="657.4531"/><polygon fill="#181818" points="869.125,653.4531,859.125,657.4531,869.125,661.4531,865.125,657.4531" style="stroke:#181818;stroke-width:1.0;"/><line style="stroke:#181818;stroke-width:1.0;" x1="948.25" x2="847.125" y1="463.1719" y2="463.1719"/><line style="stroke:#181818;stroke-width:1.0;" x1="847.125" x2="847.125" y1="463.1719" y2="485.1719"/><polygon fill="#181818" points="843.125,475.1719,847.125,485.1719,851.125,475.1719,847.125,479.1719" style="stroke:#181818;stroke-width:1.0;"/><line style="stroke:#181818;stroke-width:1.0;" x1="1106.25" x2="1207.375" y1="463.1719" y2="463.1719"/><line style="stroke:#181818;stroke-width:1.0;" x1="1207.375" x2="1207.375" y1="463.1719" y2="485.1719"/><polygon fill="#181818" points="1203.375,475.1719,1207.375,485.1719,1211.375,475.1719,1207.375,479.1719" style="stroke:#181818;stroke-width:1.0;"/><line style="stroke:#181818;stroke-width:1.0;" x1="847.125" x2="847.125" y1="669.4531" y2="687.4531"/><line style="stroke:#181818;stroke-width:1.0;" x1="847.125" x2="1015.25" y1="687.4531" y2="687.4531"/><polygon fill="#181818" points="1005.25,683.4531,1015.25,687.4531,1005.25,691.4531,1009.25,687.4531" style="stroke:#181818;stroke-width:1.0;"/><line style="stroke:#181818;stroke-width:1.0;" x1="1207.375" x2="1207.375" y1="520.2656" y2="687.4531"/><line style="stroke:#181818;stroke-width:1.0;" x1="1207.375" x2="1039.25" y1="687.4531" y2="687.4531"/><polygon fill="#181818" points="1049.25,683.4531,1039.25,687.4531,1049.25,691.4531,1045.25,687.4531" style="stroke:#181818;stroke-width:1.0;"/><line style="stroke:#181818;stroke-width:1.0;" x1="562.875" x2="242.5" y1="429.1719" y2="429.1719"/><line style="stroke:#181818;stroke-width:1.0;" x1="242.5" x2="242.5" y1="429.1719" y2="451.1719"/><polygon fill="#181818" points="238.5,441.1719,242.5,451.1719,246.5,441.1719,242.5,445.1719" style="stroke:#181818;stroke-width:1.0;"/><line style="stroke:#181818;stroke-width:1.0;" x1="706.875" x2="1027.25" y1="429.1719" y2="429.1719"/><line style="stroke:#181818;stroke-width:1.0;" x1="1027.25" x2="1027.25" y1="429.1719" y2="451.1719"/><polygon fill="#181818" points="1023.25,441.1719,1027.25,451.1719,1031.25,441.1719,1027.25,445.1719" style="stroke:#181818;stroke-width:1.0;"/><line style="stroke:#181818;stroke-width:1.0;" x1="242.5" x2="242.5" y1="884.7344" y2="902.7344"/><line style="stroke:#181818;stroke-width:1.0;" x1="242.5" x2="622.875" y1="902.7344" y2="902.7344"/><polygon fill="#181818" points="612.875,898.7344,622.875,902.7344,612.875,906.7344,616.875,902.7344" style="stroke:#181818;stroke-width:1.0;"/><line style="stroke:#181818;stroke-width:1.0;" x1="1027.25" x2="1027.25" y1="699.4531" y2="902.7344"/><line style="stroke:#181818;stroke-width:1.0;" x1="1027.25" x2="646.875" y1="902.7344" y2="902.7344"/><polygon fill="#181818" points="656.875,898.7344,646.875,902.7344,656.875,906.7344,652.875,902.7344" style="stroke:#181818;stroke-width:1.0;"/><line style="stroke:#181818;stroke-width:1.0;" x1="634.875" x2="634.875" y1="397.1719" y2="417.1719"/><polygon fill="#181818" points="630.875,407.1719,634.875,417.1719,638.875,407.1719,634.875,411.1719" style="stroke:#181818;stroke-width:1.0;"/><line style="stroke:#181818;stroke-width:1.0;" x1="634.875" x2="634.875" y1="326.9844" y2="346.9844"/><polygon fill="#181818" points="630.875,336.9844,634.875,346.9844,638.875,336.9844,634.875,340.9844" style="stroke:#181818;stroke-width:1.0;"/><line style="stroke:#181818;stroke-width:1.0;" x1="693.375" x2="1307.875" y1="946.7344" y2="946.7344"/><polygon fill="#181818" points="1303.875,645.8594,1307.875,635.8594,1311.875,645.8594,1307.875,641.8594" style="stroke:#181818;stroke-width:1.0;"/><line style="stroke:#181818;stroke-width:1.0;" x1="1307.875" x2="1307.875" y1="314.9844" y2="946.7344"/><line style="stroke:#181818;stroke-width:1.0;" x1="1307.875" x2="646.875" y1="314.9844" y2="314.9844"/><polygon fill="#181818" points="656.875,310.9844,646.875,314.9844,656.875,318.9844,652.875,314.9844" style="stroke:#181818;stroke-width:1.0;"/><line style="stroke:#181818;stroke-width:1.0;" x1="634.875" x2="634.875" y1="914.7344" y2="934.7344"/><polygon fill="#181818" points="630.875,924.7344,634.875,934.7344,638.875,924.7344,634.875,928.7344" style="stroke:#181818;stroke-width:1.0;"/><line style="stroke:#181818;stroke-width:1.0;" x1="634.875" x2="634.875" y1="282.9844" y2="302.9844"/><polygon fill="#181818" points="630.875,292.9844,634.875,302.9844,638.875,292.9844,634.875,296.9844" style="stroke:#181818;stroke-width:1.0;"/><line style="stroke:#181818;stroke-width:1.0;" x1="983.125" x2="634.875" y1="155.7031" y2="155.7031"/><line style="stroke:#181818;stroke-width:1.0;" x1="634.875" x2="634.875" y1="155.7031" y2="177.7031"/><polygon fill="#181818" points="630.875,167.7031,634.875,177.7031,638.875,167.7031,634.875,171.7031" style="stroke:#181818;stroke-width:1.0;"/><line style="stroke:#181818;stroke-width:1.0;" x1="1110.125" x2="1422.375" y1="155.7031" y2="155.7031"/><line style="stroke:#181818;stroke-width:1.0;" x1="1422.375" x2="1422.375" y1="155.7031" y2="177.7031"/><polygon fill="#181818" points="1418.375,167.7031,1422.375,177.7031,1426.375,167.7031,1422.375,171.7031" style="stroke:#181818;stroke-width:1.0;"/><line style="stroke:#181818;stroke-width:1.0;" x1="634.875" x2="634.875" y1="958.7344" y2="976.7344"/><line style="stroke:#181818;stroke-width:1.0;" x1="634.875" x2="1034.625" y1="976.7344" y2="976.7344"/><polygon fill="#181818" points="1024.625,972.7344,1034.625,976.7344,1024.625,980.7344,1028.625,976.7344" style="stroke:#181818;stroke-width:1.0;"/><line style="stroke:#181818;stroke-width:1.0;" x1="1422.375" x2="1422.375" y1="212.7969" y2="976.7344"/><line style="stroke:#181818;stroke-width:1.0;" x1="1422.375" x2="1058.625" y1="976.7344" y2="976.7344"/><polygon fill="#181818" points="1068.625,972.7344,1058.625,976.7344,1068.625,980.7344,1064.625,976.7344" style="stroke:#181818;stroke-width:1.0;"/><line style="stroke:#181818;stroke-width:1.0;" x1="1046.625" x2="1046.625" y1="123.7031" y2="143.7031"/><polygon fill="#181818" points="1042.625,133.7031,1046.625,143.7031,1050.625,133.7031,1046.625,137.7031" style="stroke:#181818;stroke-width:1.0;"/><line style="stroke:#181818;stroke-width:1.0;" x1="1046.625" x2="1046.625" y1="988.7344" y2="1008.7344"/><polygon fill="#181818" points="1042.625,998.7344,1046.625,1008.7344,1050.625,998.7344,1046.625,1002.7344" style="stroke:#181818;stroke-width:1.0;"/><!--SRC=[lLHBZjD04Dtx5BN35g3PnngXa94GQ0OD2M8L2VNOPRjGkzlqnyFiE0G7O9jpv2QSX6f_4fiai6FbJrUzUk_LKpjo4k66H6b4NIFapvQPevRSVWU_ll-0DsWTQGKvMY1bCqDD-BOGtmabIbnZITOP4Nv-8doyqpdA98gi4yP5qM9P59HLQ41o6NOmJdkZDDaqYgY0-6F_2NQ_avW57CMpNoNWAbGGQqz91B1OLSAKZ3CZWTyOLIY7TgjkjSYdRE8D1ZpCkm6YHkMID22z5osLdg5QD1PEPTppDtC3CDYWSFp2JGSTNxH7RqOp70z-3YBhwJJQMdgGQBjsW21lsPt1DIovqnq0JWIEzQCTcQuRYUvi7VDPO-4jeuc0kbNnIgXbdjzByHH4NKCXfCLag-0rd_FyqX0Rd0u0o8SGAwqcY2iXCoyPSesr84Mg_DmCS76F6rO8B-6M7yDHaXxxvxQkAgqj3doELK7Xkzw0hE8Cq0LzmV71ht6DexRzpoc3TDgo4Rx5KfZyZvni5SUIYgTPFDmX5YykIEfi3cKNGpBMdV4pAF2PLpYaumg-Ud9koXWLaugcxz5Pi5cCDhvf3DL_3rBVCtSEb9Voijrlwp6zVPfkkDaD2vpaQHud-8S3R1-PantoBV2_LZYp-4pePok2A_ZGxmYQoNgF68SbzJS3F5R4bsUyqigH2j4lXzkINIOxU1pDvYxMnEvpXWl1pa3yqFbf8T_lR63HyfFv3vEiqyrl]--></g></svg>