<?xml version="1.0" encoding="us-ascii" standalone="no"?><svg xmlns="http://www.w3.org/2000/svg" xmlns:xlink="http://www.w3.org/1999/xlink" contentStyleType="text/css" height="715px" preserveAspectRatio="none" style="width:1113px;height:715px;background:#FFFFFF;" version="1.1" viewBox="0 0 1113 715" width="1113px" zoomAndPan="magnify"><defs/><g><text fill="#000000" font-family="sans-serif" font-size="14" font-weight="bold" lengthAdjust="spacing" textLength="217.4375" x="440.7813" y="24.5332">Diagramme de classe &#8212; Metier</text><!--class Person--><g id="elem_Person"><rect codeLine="12" fill="#F1F1F1" height="136.0469" id="Person" rx="2.5" ry="2.5" style="stroke:#181818;stroke-width:0.5;" width="147" x="551.5" y="120.1094"/><ellipse cx="598.25" cy="136.1094" fill="#A9DCDF" rx="11" ry="11" style="stroke:#181818;stroke-width:1.0;"/><path d="M600.4375,137.875 L596.2969,137.875 L595.875,138.9063 L596.2969,138.9063 Q596.9063,138.9063 597.1719,139.1406 Q597.4375,139.375 597.4375,139.7656 Q597.4375,140.1406 597.1719,140.375 Q596.9063,140.6094 596.2969,140.6094 L594,140.6094 Q593.3906,140.6094 593.1406,140.375 Q592.875,140.1406 592.875,139.75 Q592.875,139.375 593.1563,139.1406 Q593.4219,138.8906 594.0469,138.9063 L596.7188,132.25 L595.6094,132.25 Q595,132.25 594.7344,132.0156 Q594.4688,131.7813 594.4688,131.3906 Q594.4688,131.0156 594.7344,130.7813 Q595,130.5469 595.6094,130.5469 L599.2813,130.5469 L602.6719,138.9063 Q603.2656,138.9063 603.4531,139.0469 Q603.8438,139.3125 603.8438,139.7656 Q603.8438,140.1406 603.5781,140.375 Q603.3281,140.6094 602.7188,140.6094 L600.4219,140.6094 Q599.8125,140.6094 599.5469,140.375 Q599.2813,140.1406 599.2813,139.75 Q599.2813,139.375 599.5469,139.1406 Q599.8125,138.9063 600.4219,138.9063 L600.8438,138.9063 L600.4375,137.875 Z M599.7188,136.1719 L598.3594,132.7969 L596.9844,136.1719 L599.7188,136.1719 Z " fill="#000000"/><text fill="#000000" font-family="sans-serif" font-size="14" font-style="italic" lengthAdjust="spacing" textLength="45" x="618.75" y="141.8379">Person</text><line style="stroke:#181818;stroke-width:0.5;" x1="552.5" x2="697.5" y1="152.1094" y2="152.1094"/><ellipse cx="562.5" cy="166.4141" fill="none" rx="3" ry="3" style="stroke:#038048;stroke-width:1.0;"/><text fill="#000000" font-family="sans-serif" font-size="14" lengthAdjust="spacing" textLength="111" x="571.5" y="170.6426">FirstName : string</text><ellipse cx="562.5" cy="184.0234" fill="none" rx="3" ry="3" style="stroke:#038048;stroke-width:1.0;"/><text fill="#000000" font-family="sans-serif" font-size="14" lengthAdjust="spacing" textLength="110" x="571.5" y="188.252">LastName : string</text><ellipse cx="562.5" cy="201.6328" fill="none" rx="3" ry="3" style="stroke:#038048;stroke-width:1.0;"/><text fill="#000000" font-family="sans-serif" font-size="14" lengthAdjust="spacing" textLength="121" x="571.5" y="205.8613">DateOfBirth : string</text><ellipse cx="562.5" cy="219.2422" fill="none" rx="3" ry="3" style="stroke:#038048;stroke-width:1.0;"/><text fill="#000000" font-family="sans-serif" font-size="14" lengthAdjust="spacing" textLength="72" x="571.5" y="223.4707">Mail : string</text><ellipse cx="562.5" cy="236.8516" fill="none" rx="3" ry="3" style="stroke:#038048;stroke-width:1.0;"/><text fill="#000000" font-family="sans-serif" font-size="14" lengthAdjust="spacing" textLength="88" x="571.5" y="241.0801">Phone : string</text><line style="stroke:#181818;stroke-width:0.5;" x1="552.5" x2="697.5" y1="248.1563" y2="248.1563"/></g><!--class Player--><g id="elem_Player"><rect codeLine="20" fill="#F1F1F1" height="83.2188" id="Player" rx="2.5" ry="2.5" style="stroke:#181818;stroke-width:0.5;" width="112" x="314" y="153.6094"/><ellipse cx="347" cy="169.6094" fill="#ADD1B2" rx="11" ry="11" style="stroke:#181818;stroke-width:1.0;"/><path d="M349.7656,165.4844 Q349.9219,165.2656 350.1094,165.1563 Q350.2969,165.0469 350.5156,165.0469 Q350.8906,165.0469 351.125,165.3125 Q351.3594,165.5625 351.3594,166.1719 L351.3594,167.625 Q351.3594,168.2344 351.125,168.5 Q350.8906,168.7656 350.5156,168.7656 Q350.1719,168.7656 349.9688,168.5625 Q349.7656,168.375 349.6563,167.8594 Q349.6094,167.5 349.4219,167.3125 Q349.0938,166.9375 348.4844,166.7188 Q347.875,166.5 347.25,166.5 Q346.4844,166.5 345.8438,166.8281 Q345.2188,167.1563 344.7188,167.9063 Q344.2344,168.6563 344.2344,169.6875 L344.2344,170.7813 Q344.2344,172.0156 345.125,172.8438 Q346.0156,173.6563 347.6094,173.6563 Q348.5469,173.6563 349.2031,173.4063 Q349.5938,173.25 350.0156,172.8125 Q350.2813,172.5469 350.4219,172.4688 Q350.5781,172.3906 350.7813,172.3906 Q351.1094,172.3906 351.3594,172.6563 Q351.625,172.9063 351.625,173.25 Q351.625,173.5938 351.2813,174 Q350.7813,174.5781 349.9844,174.9063 Q348.9063,175.3594 347.6094,175.3594 Q346.0938,175.3594 344.8906,174.7344 Q343.9063,174.2344 343.2188,173.1719 Q342.5313,172.0938 342.5313,170.8125 L342.5313,169.6563 Q342.5313,168.3281 343.1406,167.1875 Q343.7656,166.0313 344.8594,165.4219 Q345.9531,164.7969 347.1875,164.7969 Q347.9219,164.7969 348.5625,164.9688 Q349.2188,165.125 349.7656,165.4844 Z " fill="#000000"/><text fill="#000000" font-family="sans-serif" font-size="14" lengthAdjust="spacing" textLength="40" x="365" y="175.3379">Player</text><line style="stroke:#181818;stroke-width:0.5;" x1="315" x2="425" y1="185.6094" y2="185.6094"/><ellipse cx="325" cy="199.9141" fill="none" rx="3" ry="3" style="stroke:#038048;stroke-width:1.0;"/><text fill="#000000" font-family="sans-serif" font-size="14" lengthAdjust="spacing" textLength="47" x="334" y="204.1426">Elo : int</text><ellipse cx="325" cy="217.5234" fill="none" rx="3" ry="3" style="stroke:#038048;stroke-width:1.0;"/><text fill="#000000" font-family="sans-serif" font-size="14" lengthAdjust="spacing" textLength="86" x="334" y="221.752">Player_id : int</text><line style="stroke:#181818;stroke-width:0.5;" x1="315" x2="425" y1="228.8281" y2="228.8281"/></g><!--class GameResult--><g id="elem_GameResult"><rect codeLine="25" fill="#F1F1F1" height="100.8281" id="GameResult" rx="2.5" ry="2.5" style="stroke:#181818;stroke-width:0.5;" width="110" x="889.5" y="468.6094"/><ellipse cx="904.5" cy="484.6094" fill="#EB937F" rx="11" ry="11" style="stroke:#181818;stroke-width:1.0;"/><path d="M903.3594,485.4063 L903.3594,487.9063 L907.6875,487.9063 L907.6875,486.9844 Q907.6875,486.375 907.9219,486.1094 Q908.1719,485.8438 908.5469,485.8438 Q908.9219,485.8438 909.1563,486.1094 Q909.3906,486.375 909.3906,486.9844 L909.3906,489.6094 L901.3906,489.6094 Q900.7656,489.6094 900.5,489.375 Q900.25,489.1406 900.25,488.75 Q900.25,488.375 900.5156,488.1406 Q900.7813,487.9063 901.3906,487.9063 L901.6563,487.9063 L901.6563,481.25 L901.3906,481.25 Q900.7656,481.25 900.5,481.0156 Q900.25,480.7813 900.25,480.3906 Q900.25,480.0156 900.5,479.7813 Q900.7656,479.5469 901.3906,479.5469 L909.0156,479.5469 L909.0156,482.1406 Q909.0156,482.75 908.7813,483.0156 Q908.5625,483.2656 908.1719,483.2656 Q907.7969,483.2656 907.5625,483.0156 Q907.3281,482.75 907.3281,482.1406 L907.3281,481.25 L903.3594,481.25 L903.3594,483.7031 L904.8438,483.7031 Q904.8438,483.0469 904.9688,482.8594 Q905.2344,482.4531 905.7031,482.4531 Q906.0781,482.4531 906.3125,482.7188 Q906.5469,482.9688 906.5469,483.5781 L906.5469,485.5469 Q906.5469,486.0938 906.4219,486.2813 Q906.1563,486.6719 905.7031,486.6719 Q905.2344,486.6719 904.9688,486.2656 Q904.8438,486.0781 904.8438,485.4063 L903.3594,485.4063 Z " fill="#000000"/><text fill="#000000" font-family="sans-serif" font-size="14" lengthAdjust="spacing" textLength="78" x="918.5" y="490.3379">GameResult</text><line style="stroke:#181818;stroke-width:0.5;" x1="890.5" x2="998.5" y1="500.6094" y2="500.6094"/><text fill="#000000" font-family="sans-serif" font-size="14" lengthAdjust="spacing" textLength="72" x="895.5" y="519.1426">Player1Win</text><text fill="#000000" font-family="sans-serif" font-size="14" lengthAdjust="spacing" textLength="72" x="895.5" y="536.752">Player2Win</text><text fill="#000000" font-family="sans-serif" font-size="14" lengthAdjust="spacing" textLength="32" x="895.5" y="554.3613">Draw</text><line style="stroke:#181818;stroke-width:0.5;" x1="890.5" x2="998.5" y1="561.4375" y2="561.4375"/></g><!--class Game--><g id="elem_Game"><rect codeLine="31" fill="#F1F1F1" height="83.2188" id="Game" rx="2.5" ry="2.5" style="stroke:#181818;stroke-width:0.5;" width="156" x="547" y="316.6094"/><ellipse cx="601.75" cy="332.6094" fill="#A9DCDF" rx="11" ry="11" style="stroke:#181818;stroke-width:1.0;"/><path d="M603.9375,334.375 L599.7969,334.375 L599.375,335.4063 L599.7969,335.4063 Q600.4063,335.4063 600.6719,335.6406 Q600.9375,335.875 600.9375,336.2656 Q600.9375,336.6406 600.6719,336.875 Q600.4063,337.1094 599.7969,337.1094 L597.5,337.1094 Q596.8906,337.1094 596.6406,336.875 Q596.375,336.6406 596.375,336.25 Q596.375,335.875 596.6563,335.6406 Q596.9219,335.3906 597.5469,335.4063 L600.2188,328.75 L599.1094,328.75 Q598.5,328.75 598.2344,328.5156 Q597.9688,328.2813 597.9688,327.8906 Q597.9688,327.5156 598.2344,327.2813 Q598.5,327.0469 599.1094,327.0469 L602.7813,327.0469 L606.1719,335.4063 Q606.7656,335.4063 606.9531,335.5469 Q607.3438,335.8125 607.3438,336.2656 Q607.3438,336.6406 607.0781,336.875 Q606.8281,337.1094 606.2188,337.1094 L603.9219,337.1094 Q603.3125,337.1094 603.0469,336.875 Q602.7813,336.6406 602.7813,336.25 Q602.7813,335.875 603.0469,335.6406 Q603.3125,335.4063 603.9219,335.4063 L604.3438,335.4063 L603.9375,334.375 Z M603.2188,332.6719 L601.8594,329.2969 L600.4844,332.6719 L603.2188,332.6719 Z " fill="#000000"/><text fill="#000000" font-family="sans-serif" font-size="14" font-style="italic" lengthAdjust="spacing" textLength="38" x="622.25" y="338.3379">Game</text><line style="stroke:#181818;stroke-width:0.5;" x1="548" x2="702" y1="348.6094" y2="348.6094"/><ellipse cx="558" cy="362.9141" fill="none" rx="3" ry="3" style="stroke:#038048;stroke-width:1.0;"/><text fill="#000000" font-family="sans-serif" font-size="14" lengthAdjust="spacing" textLength="84" x="567" y="367.1426">Match_id : int</text><ellipse cx="558" cy="380.5234" fill="none" rx="3" ry="3" style="stroke:#038048;stroke-width:1.0;"/><text fill="#000000" font-family="sans-serif" font-size="14" lengthAdjust="spacing" textLength="130" x="567" y="384.752">Result : GameResult</text><line style="stroke:#181818;stroke-width:0.5;" x1="548" x2="702" y1="391.8281" y2="391.8281"/></g><!--class ChessColor--><g id="elem_ChessColor"><rect codeLine="36" fill="#F1F1F1" height="83.2188" id="ChessColor" rx="2.5" ry="2.5" style="stroke:#181818;stroke-width:0.5;" width="106" x="572" y="477.6094"/><ellipse cx="587" cy="493.6094" fill="#EB937F" rx="11" ry="11" style="stroke:#181818;stroke-width:1.0;"/><path d="M585.8594,494.4063 L585.8594,496.9063 L590.1875,496.9063 L590.1875,495.9844 Q590.1875,495.375 590.4219,495.1094 Q590.6719,494.8438 591.0469,494.8438 Q591.4219,494.8438 591.6563,495.1094 Q591.8906,495.375 591.8906,495.9844 L591.8906,498.6094 L583.8906,498.6094 Q583.2656,498.6094 583,498.375 Q582.75,498.1406 582.75,497.75 Q582.75,497.375 583.0156,497.1406 Q583.2813,496.9063 583.8906,496.9063 L584.1563,496.9063 L584.1563,490.25 L583.8906,490.25 Q583.2656,490.25 583,490.0156 Q582.75,489.7813 582.75,489.3906 Q582.75,489.0156 583,488.7813 Q583.2656,488.5469 583.8906,488.5469 L591.5156,488.5469 L591.5156,491.1406 Q591.5156,491.75 591.2813,492.0156 Q591.0625,492.2656 590.6719,492.2656 Q590.2969,492.2656 590.0625,492.0156 Q589.8281,491.75 589.8281,491.1406 L589.8281,490.25 L585.8594,490.25 L585.8594,492.7031 L587.3438,492.7031 Q587.3438,492.0469 587.4688,491.8594 Q587.7344,491.4531 588.2031,491.4531 Q588.5781,491.4531 588.8125,491.7188 Q589.0469,491.9688 589.0469,492.5781 L589.0469,494.5469 Q589.0469,495.0938 588.9219,495.2813 Q588.6563,495.6719 588.2031,495.6719 Q587.7344,495.6719 587.4688,495.2656 Q587.3438,495.0781 587.3438,494.4063 L585.8594,494.4063 Z " fill="#000000"/><text fill="#000000" font-family="sans-serif" font-size="14" lengthAdjust="spacing" textLength="74" x="601" y="499.3379">ChessColor</text><line style="stroke:#181818;stroke-width:0.5;" x1="573" x2="677" y1="509.6094" y2="509.6094"/><text fill="#000000" font-family="sans-serif" font-size="14" lengthAdjust="spacing" textLength="36" x="578" y="528.1426">White</text><text fill="#000000" font-family="sans-serif" font-size="14" lengthAdjust="spacing" textLength="34" x="578" y="545.752">Black</text><line style="stroke:#181818;stroke-width:0.5;" x1="573" x2="677" y1="552.8281" y2="552.8281"/></g><!--class ChessGame--><g id="elem_ChessGame"><rect codeLine="42" fill="#F1F1F1" height="83.2188" id="ChessGame" rx="2.5" ry="2.5" style="stroke:#181818;stroke-width:0.5;" width="194" x="273" y="303.6094"/><ellipse cx="326.75" cy="319.6094" fill="#ADD1B2" rx="11" ry="11" style="stroke:#181818;stroke-width:1.0;"/><path d="M329.5156,315.4844 Q329.6719,315.2656 329.8594,315.1563 Q330.0469,315.0469 330.2656,315.0469 Q330.6406,315.0469 330.875,315.3125 Q331.1094,315.5625 331.1094,316.1719 L331.1094,317.625 Q331.1094,318.2344 330.875,318.5 Q330.6406,318.7656 330.2656,318.7656 Q329.9219,318.7656 329.7188,318.5625 Q329.5156,318.375 329.4063,317.8594 Q329.3594,317.5 329.1719,317.3125 Q328.8438,316.9375 328.2344,316.7188 Q327.625,316.5 327,316.5 Q326.2344,316.5 325.5938,316.8281 Q324.9688,317.1563 324.4688,317.9063 Q323.9844,318.6563 323.9844,319.6875 L323.9844,320.7813 Q323.9844,322.0156 324.875,322.8438 Q325.7656,323.6563 327.3594,323.6563 Q328.2969,323.6563 328.9531,323.4063 Q329.3438,323.25 329.7656,322.8125 Q330.0313,322.5469 330.1719,322.4688 Q330.3281,322.3906 330.5313,322.3906 Q330.8594,322.3906 331.1094,322.6563 Q331.375,322.9063 331.375,323.25 Q331.375,323.5938 331.0313,324 Q330.5313,324.5781 329.7344,324.9063 Q328.6563,325.3594 327.3594,325.3594 Q325.8438,325.3594 324.6406,324.7344 Q323.6563,324.2344 322.9688,323.1719 Q322.2813,322.0938 322.2813,320.8125 L322.2813,319.6563 Q322.2813,318.3281 322.8906,317.1875 Q323.5156,316.0313 324.6094,315.4219 Q325.7031,314.7969 326.9375,314.7969 Q327.6719,314.7969 328.3125,314.9688 Q328.9688,315.125 329.5156,315.4844 Z " fill="#000000"/><text fill="#000000" font-family="sans-serif" font-size="14" lengthAdjust="spacing" textLength="78" x="347.25" y="325.3379">ChessGame</text><line style="stroke:#181818;stroke-width:0.5;" x1="274" x2="466" y1="335.6094" y2="335.6094"/><ellipse cx="284" cy="349.9141" fill="none" rx="3" ry="3" style="stroke:#038048;stroke-width:1.0;"/><text fill="#000000" font-family="sans-serif" font-size="14" lengthAdjust="spacing" textLength="168" x="293" y="354.1426">Player1Color : ChessColor</text><ellipse cx="284" cy="367.5234" fill="none" rx="3" ry="3" style="stroke:#038048;stroke-width:1.0;"/><text fill="#000000" font-family="sans-serif" font-size="14" lengthAdjust="spacing" textLength="118" x="293" y="371.752">Moves : List[string]</text><line style="stroke:#181818;stroke-width:0.5;" x1="274" x2="466" y1="378.8281" y2="378.8281"/></g><!--class Tournament--><g id="elem_Tournament"><rect codeLine="47" fill="#F1F1F1" height="188.875" id="Tournament" rx="2.5" ry="2.5" style="stroke:#181818;stroke-width:0.5;" width="186" x="7" y="45.6094"/><ellipse cx="57.25" cy="61.6094" fill="#A9DCDF" rx="11" ry="11" style="stroke:#181818;stroke-width:1.0;"/><path d="M59.4375,63.375 L55.2969,63.375 L54.875,64.4063 L55.2969,64.4063 Q55.9063,64.4063 56.1719,64.6406 Q56.4375,64.875 56.4375,65.2656 Q56.4375,65.6406 56.1719,65.875 Q55.9063,66.1094 55.2969,66.1094 L53,66.1094 Q52.3906,66.1094 52.1406,65.875 Q51.875,65.6406 51.875,65.25 Q51.875,64.875 52.1563,64.6406 Q52.4219,64.3906 53.0469,64.4063 L55.7188,57.75 L54.6094,57.75 Q54,57.75 53.7344,57.5156 Q53.4688,57.2813 53.4688,56.8906 Q53.4688,56.5156 53.7344,56.2813 Q54,56.0469 54.6094,56.0469 L58.2813,56.0469 L61.6719,64.4063 Q62.2656,64.4063 62.4531,64.5469 Q62.8438,64.8125 62.8438,65.2656 Q62.8438,65.6406 62.5781,65.875 Q62.3281,66.1094 61.7188,66.1094 L59.4219,66.1094 Q58.8125,66.1094 58.5469,65.875 Q58.2813,65.6406 58.2813,65.25 Q58.2813,64.875 58.5469,64.6406 Q58.8125,64.4063 59.4219,64.4063 L59.8438,64.4063 L59.4375,63.375 Z M58.7188,61.6719 L57.3594,58.2969 L55.9844,61.6719 L58.7188,61.6719 Z " fill="#000000"/><text fill="#000000" font-family="sans-serif" font-size="14" font-style="italic" lengthAdjust="spacing" textLength="77" x="77.75" y="67.3379">Tournament</text><line style="stroke:#181818;stroke-width:0.5;" x1="8" x2="192" y1="77.6094" y2="77.6094"/><ellipse cx="18" cy="91.9141" fill="none" rx="3" ry="3" style="stroke:#038048;stroke-width:1.0;"/><text fill="#000000" font-family="sans-serif" font-size="14" lengthAdjust="spacing" textLength="160" x="27" y="96.1426">TournamentName : string</text><ellipse cx="18" cy="109.5234" fill="none" rx="3" ry="3" style="stroke:#038048;stroke-width:1.0;"/><text fill="#000000" font-family="sans-serif" font-size="14" lengthAdjust="spacing" textLength="101" x="27" y="113.752">Location : string</text><ellipse cx="18" cy="127.1328" fill="none" rx="3" ry="3" style="stroke:#038048;stroke-width:1.0;"/><text fill="#000000" font-family="sans-serif" font-size="14" lengthAdjust="spacing" textLength="107" x="27" y="131.3613">StartDate : string</text><ellipse cx="18" cy="144.7422" fill="none" rx="3" ry="3" style="stroke:#038048;stroke-width:1.0;"/><text fill="#000000" font-family="sans-serif" font-size="14" lengthAdjust="spacing" textLength="102" x="27" y="148.9707">EndDate : string</text><ellipse cx="18" cy="162.3516" fill="none" rx="3" ry="3" style="stroke:#038048;stroke-width:1.0;"/><text fill="#000000" font-family="sans-serif" font-size="14" lengthAdjust="spacing" textLength="141" x="27" y="166.5801">MaxNumberPlayer : int</text><ellipse cx="18" cy="179.9609" fill="none" rx="3" ry="3" style="stroke:#038048;stroke-width:1.0;"/><text fill="#000000" font-family="sans-serif" font-size="14" lengthAdjust="spacing" textLength="118" x="27" y="184.1895">Description : string</text><ellipse cx="18" cy="197.5703" fill="none" rx="3" ry="3" style="stroke:#038048;stroke-width:1.0;"/><text fill="#000000" font-family="sans-serif" font-size="14" lengthAdjust="spacing" textLength="85" x="27" y="201.7988">EntryFee : int</text><ellipse cx="18" cy="215.1797" fill="none" rx="3" ry="3" style="stroke:#038048;stroke-width:1.0;"/><text fill="#000000" font-family="sans-serif" font-size="14" lengthAdjust="spacing" textLength="86" x="27" y="219.4082">PrizePool : int</text><line style="stroke:#181818;stroke-width:0.5;" x1="8" x2="192" y1="226.4844" y2="226.4844"/></g><!--class Chess_Tournament--><g id="elem_Chess_Tournament"><rect codeLine="58" fill="#F1F1F1" height="100.8281" id="Chess_Tournament" rx="2.5" ry="2.5" style="stroke:#181818;stroke-width:0.5;" width="180" x="10" y="294.6094"/><ellipse cx="35.35" cy="310.6094" fill="#ADD1B2" rx="11" ry="11" style="stroke:#181818;stroke-width:1.0;"/><path d="M38.1156,306.4844 Q38.2719,306.2656 38.4594,306.1563 Q38.6469,306.0469 38.8656,306.0469 Q39.2406,306.0469 39.475,306.3125 Q39.7094,306.5625 39.7094,307.1719 L39.7094,308.625 Q39.7094,309.2344 39.475,309.5 Q39.2406,309.7656 38.8656,309.7656 Q38.5219,309.7656 38.3188,309.5625 Q38.1156,309.375 38.0063,308.8594 Q37.9594,308.5 37.7719,308.3125 Q37.4438,307.9375 36.8344,307.7188 Q36.225,307.5 35.6,307.5 Q34.8344,307.5 34.1938,307.8281 Q33.5688,308.1563 33.0688,308.9063 Q32.5844,309.6563 32.5844,310.6875 L32.5844,311.7813 Q32.5844,313.0156 33.475,313.8438 Q34.3656,314.6563 35.9594,314.6563 Q36.8969,314.6563 37.5531,314.4063 Q37.9438,314.25 38.3656,313.8125 Q38.6313,313.5469 38.7719,313.4688 Q38.9281,313.3906 39.1313,313.3906 Q39.4594,313.3906 39.7094,313.6563 Q39.975,313.9063 39.975,314.25 Q39.975,314.5938 39.6313,315 Q39.1313,315.5781 38.3344,315.9063 Q37.2563,316.3594 35.9594,316.3594 Q34.4438,316.3594 33.2406,315.7344 Q32.2563,315.2344 31.5688,314.1719 Q30.8813,313.0938 30.8813,311.8125 L30.8813,310.6563 Q30.8813,309.3281 31.4906,308.1875 Q32.1156,307.0313 33.2094,306.4219 Q34.3031,305.7969 35.5375,305.7969 Q36.2719,305.7969 36.9125,305.9688 Q37.5688,306.125 38.1156,306.4844 Z " fill="#000000"/><text fill="#000000" font-family="sans-serif" font-size="14" lengthAdjust="spacing" textLength="125" x="51.65" y="316.3379">Chess_Tournament</text><line style="stroke:#181818;stroke-width:0.5;" x1="11" x2="189" y1="326.6094" y2="326.6094"/><ellipse cx="21" cy="340.9141" fill="none" rx="3" ry="3" style="stroke:#038048;stroke-width:1.0;"/><text fill="#000000" font-family="sans-serif" font-size="14" lengthAdjust="spacing" textLength="154" x="30" y="345.1426">CompetitionType : string</text><ellipse cx="21" cy="358.5234" fill="none" rx="3" ry="3" style="stroke:#038048;stroke-width:1.0;"/><text fill="#000000" font-family="sans-serif" font-size="14" lengthAdjust="spacing" textLength="124" x="30" y="362.752">TimeControl : string</text><ellipse cx="21" cy="376.1328" fill="none" rx="3" ry="3" style="stroke:#038048;stroke-width:1.0;"/><text fill="#000000" font-family="sans-serif" font-size="14" lengthAdjust="spacing" textLength="143" x="30" y="380.3613">Tournament_id : string</text><line style="stroke:#181818;stroke-width:0.5;" x1="11" x2="189" y1="387.4375" y2="387.4375"/></g><!--class EloService--><g id="elem_EloService"><rect codeLine="64" fill="#F1F1F1" height="136.0469" id="EloService" rx="2.5" ry="2.5" style="stroke:#181818;stroke-width:0.5;" width="323" x="783" y="272.1094"/><ellipse cx="906.75" cy="288.1094" fill="#ADD1B2" rx="11" ry="11" style="stroke:#181818;stroke-width:1.0;"/><path d="M909.5156,283.9844 Q909.6719,283.7656 909.8594,283.6563 Q910.0469,283.5469 910.2656,283.5469 Q910.6406,283.5469 910.875,283.8125 Q911.1094,284.0625 911.1094,284.6719 L911.1094,286.125 Q911.1094,286.7344 910.875,287 Q910.6406,287.2656 910.2656,287.2656 Q909.9219,287.2656 909.7188,287.0625 Q909.5156,286.875 909.4063,286.3594 Q909.3594,286 909.1719,285.8125 Q908.8438,285.4375 908.2344,285.2188 Q907.625,285 907,285 Q906.2344,285 905.5938,285.3281 Q904.9688,285.6563 904.4688,286.4063 Q903.9844,287.1563 903.9844,288.1875 L903.9844,289.2813 Q903.9844,290.5156 904.875,291.3438 Q905.7656,292.1563 907.3594,292.1563 Q908.2969,292.1563 908.9531,291.9063 Q909.3438,291.75 909.7656,291.3125 Q910.0313,291.0469 910.1719,290.9688 Q910.3281,290.8906 910.5313,290.8906 Q910.8594,290.8906 911.1094,291.1563 Q911.375,291.4063 911.375,291.75 Q911.375,292.0938 911.0313,292.5 Q910.5313,293.0781 909.7344,293.4063 Q908.6563,293.8594 907.3594,293.8594 Q905.8438,293.8594 904.6406,293.2344 Q903.6563,292.7344 902.9688,291.6719 Q902.2813,290.5938 902.2813,289.3125 L902.2813,288.1563 Q902.2813,286.8281 902.8906,285.6875 Q903.5156,284.5313 904.6094,283.9219 Q905.7031,283.2969 906.9375,283.2969 Q907.6719,283.2969 908.3125,283.4688 Q908.9688,283.625 909.5156,283.9844 Z " fill="#000000"/><text fill="#000000" font-family="sans-serif" font-size="14" lengthAdjust="spacing" textLength="67" x="927.25" y="293.8379">EloService</text><line style="stroke:#181818;stroke-width:0.5;" x1="784" x2="1105" y1="304.1094" y2="304.1094"/><line style="stroke:#181818;stroke-width:0.5;" x1="784" x2="1105" y1="312.1094" y2="312.1094"/><ellipse cx="794" cy="326.4141" fill="#84BE84" rx="3" ry="3" style="stroke:#038048;stroke-width:1.0;"/><text fill="#000000" font-family="sans-serif" font-size="14" lengthAdjust="spacing" textLength="141" x="803" y="330.6426">Apply(g : Game) : void</text><rect fill="#F24D5C" height="6" style="stroke:#C82930;stroke-width:1.0;" width="6" x="791" y="341.0234"/><text fill="#000000" font-family="sans-serif" font-size="14" lengthAdjust="spacing" text-decoration="underline" textLength="186" x="803" y="348.252">Expected(rating : int) : double</text><rect fill="#F24D5C" height="6" style="stroke:#C82930;stroke-width:1.0;" width="6" x="791" y="358.6328"/><text fill="#000000" font-family="sans-serif" font-size="14" lengthAdjust="spacing" text-decoration="underline" textLength="297" x="803" y="365.8613">ScoreForPlayer1(result : GameResult) : double</text><rect fill="#F24D5C" height="6" style="stroke:#C82930;stroke-width:1.0;" width="6" x="791" y="376.2422"/><text fill="#000000" font-family="sans-serif" font-size="14" lengthAdjust="spacing" text-decoration="underline" textLength="150" x="803" y="383.4707">KFactor(rating : int) : int</text><rect fill="#F24D5C" height="6" style="stroke:#C82930;stroke-width:1.0;" width="6" x="791" y="393.8516"/><text fill="#000000" font-family="sans-serif" font-size="14" lengthAdjust="spacing" text-decoration="underline" textLength="213" x="803" y="401.0801">CapRatingDiff(r1 : int, r2 : int) : int</text></g><!--link Player to Person--><g id="link_Player_Person"><path codeLine="74" d="M426.28,181.2794 C463.09,181.2794 493.57,181.2794 533.43,181.2794 " fill="none" id="Player-to-Person" style="stroke:#181818;stroke-width:1.0;"/><polygon fill="none" points="551.43,181.2794,533.43,175.2794,533.43,187.2794,551.43,181.2794" style="stroke:#181818;stroke-width:1.0;"/></g><!--link ChessGame to Game--><g id="link_ChessGame_Game"><path codeLine="75" d="M467.13,363.2794 C493.45,363.2794 503.6,363.2794 528.74,363.2794 " fill="none" id="ChessGame-to-Game" style="stroke:#181818;stroke-width:1.0;"/><polygon fill="none" points="546.74,363.2794,528.74,357.2794,528.74,369.2794,546.74,363.2794" style="stroke:#181818;stroke-width:1.0;"/></g><!--reverse link Tournament to Chess_Tournament--><g id="link_Tournament_Chess_Tournament"><path codeLine="76" d="M100,252.8094 C100,273.3694 100,276.3494 100,294.4194 " fill="none" id="Tournament-backto-Chess_Tournament" style="stroke:#181818;stroke-width:1.0;"/><polygon fill="none" points="100,234.8094,94,252.8094,106,252.8094,100,234.8094" style="stroke:#181818;stroke-width:1.0;"/></g><!--link Game to Player--><g id="link_Game_Player"><path codeLine="82" d="M546.95,339.9394 C525.01,339.9394 507,339.9394 507,339.9394 C507,339.9394 507,208.9394 507,208.9394 C507,208.9394 463.95,208.9394 426.12,208.9394 " fill="none" id="Game-Player" style="stroke:#181818;stroke-width:1.0;"/><text fill="#000000" font-family="sans-serif" font-size="13" lengthAdjust="spacing" textLength="15" x="524.0634" y="352.5031">0..</text><text fill="#000000" font-family="sans-serif" font-size="13" lengthAdjust="spacing" textLength="7" x="434.1314" y="225.3768">2</text></g><!--link Chess_Tournament to Player--><g id="link_Chess_Tournament_Player"><path codeLine="87" d="M190.11,299.1094 C258.92,299.1094 342,299.1094 342,299.1094 C342,299.1094 342,265.7494 342,236.8094 " fill="none" id="Chess_Tournament-Player" style="stroke:#181818;stroke-width:1.0;"/><text fill="#000000" font-family="sans-serif" font-size="13" lengthAdjust="spacing" textLength="15" x="197.8883" y="309.5972">0..</text><text fill="#000000" font-family="sans-serif" font-size="13" lengthAdjust="spacing" textLength="107" x="222.0109" y="258.236">MaxNumberPlayer</text></g><!--reverse link Chess_Tournament to ChessGame--><g id="link_Chess_Tournament_ChessGame"><path codeLine="95" d="M202.28,358.9394 C228.8,358.9394 245.92,358.9394 272.85,358.9394 " fill="none" id="Chess_Tournament-backto-ChessGame" style="stroke:#181818;stroke-width:1.0;"/><polygon fill="#181818" points="190.28,358.9394,196.28,362.9394,202.28,358.9394,196.28,354.9394,190.28,358.9394" style="stroke:#181818;stroke-width:1.0;"/><text fill="#000000" font-family="sans-serif" font-size="13" lengthAdjust="spacing" textLength="7" x="198.0462" y="374.264">1</text><text fill="#000000" font-family="sans-serif" font-size="13" lengthAdjust="spacing" textLength="15" x="249.8377" y="374.1109">0..</text></g><!--link Chess_Tournament to ChessGame--><!--reverse link Game to EloService--><g id="link_Game_EloService"><path codeLine="102" d="M709.16,358.1094 C733.45,358.1094 755.19,358.1094 782.99,358.1094 " fill="none" id="Game-backto-EloService" style="stroke:#181818;stroke-width:1.0;stroke-dasharray:7.0,7.0;"/><polygon fill="#181818" points="703.16,358.1094,712.16,362.1094,708.16,358.1094,712.16,354.1094,703.16,358.1094" style="stroke:#181818;stroke-width:1.0;"/></g><!--reverse link Player to EloService--><g id="link_Player_EloService"><path codeLine="103" d="M398,242.6494 C398,265.5394 398,283.3594 398,283.3594 C398,283.3594 621.6,283.3594 782.75,283.3594 " fill="none" id="Player-backto-EloService" style="stroke:#181818;stroke-width:1.0;stroke-dasharray:7.0,7.0;"/><polygon fill="#181818" points="398,236.6494,394,245.6494,398,241.6494,402,245.6494,398,236.6494" style="stroke:#181818;stroke-width:1.0;"/></g><!--link Player to ChessGame--><!--link Tournament to Player--><!--link EloService to GameResult--><!--link ChessColor to GameResult--><rect fill="#DDDDDD" height="108.0469" id="_legend" rx="7.5" ry="7.5" style="stroke:#000000;stroke-width:1.0;" width="134" x="12" y="587.4375"/><text fill="#000000" font-family="sans-serif" font-size="14" font-weight="bold" lengthAdjust="spacing" textLength="62" x="17" y="606.9707">L&#233;gende</text><line style="stroke:#000000;stroke-width:1.0;" x1="12" x2="146" y1="615.0469" y2="615.0469"/><text fill="#000000" font-family="sans-serif" font-size="14" lengthAdjust="spacing" textLength="123" x="17" y="634.5801">A : Classe abstraite</text><text fill="#000000" font-family="sans-serif" font-size="14" lengthAdjust="spacing" textLength="124" x="17" y="652.1895">C : Classe concr&#232;te</text><text fill="#000000" font-family="sans-serif" font-size="14" lengthAdjust="spacing" textLength="57" x="17" y="669.7988">E : Enum</text><text fill="#000000" font-family="sans-serif" font-size="14" lengthAdjust="spacing" text-decoration="underline" textLength="33" x="17" y="687.4082">static</text><!--SRC=[jLPDRXit5Dxp50_QL6uZnVQYA0n1XIF9gL4vCMmNMGH1GCqyIumfSa1oNAkfWHwY1yYoEOTkqfFqyISQIYClWhO2R8cFxuVyliUFb7Zhm6amOhvmK0g3XHDQCNidLCKDNu8K2jsgGj36BNGseNI95Ylu_Z0p6gxklF67GyQSS19XBFYSPfO89K8XkRK8V__n9roW4sWOOzz0xwi-572ZQuSM9Ft5Z1Qwov3lnmF6-CmwmmiNv-0IZTKAFZA0x-1C6EjUSLhD2P2NKFDWdl9zrZ5t-FhsXQ2DRqzSS26tBPSBhRBeHyPISSbNQ5BnYTJa8fIB8M7glIYJZM9GrKjuIUkuGbjB5yAYsz4ReJQ3upWO6_whZzhPhuzF1I-uAnPD1MzAcK-oCflAemLQEz9InmM_MGY7zFr2ykBEEwKz1RUiIbfX33p9iiGrw7kYvmIcmhgt4PvtUrPDb1f5EPLBMHl37hfqmNsRRbkl7JVESxPjdgYoRRpW3w_gvGnD8gW1Q8osCA9gfvyePrPdY3c5Hlo6brhBXi8CelUjFOtqig8szRbl_97QodyZbZZIL4Jlz5QJ9bAvssFKLjTexaNnXP3JgfAhxZoHV43VzrgKDDM3ZzOHSiKZJ1ugEkfOTWsDrJnkmBkMkfv9t7Q-BhJ1Cvt0EkgQTXCz5Vhp6N6iJQjCX31p7F7gAlYCnUrjrnn5dsTWZhU37hzUCVP9oBbQe16EAqAj-zFawlpczENaW2Mn6FpUgwjUwcmMUZsPDitFCdPfBWXehqNyVxFOKsjr8KBBMw3nb4xKlQ1_fC2WPn_GMI3vePKxg3YPrvyhL2LNf9Ba_WlDaJoJFW87V212C2px63xe6cjZdm4wg5KQGeMr2xyD7594lv-YRKG2EeVzVeUs1PtZpXU52q9-hZPdnvxuXCu3eGKbyIjDrOX6x-Qex4xDKAOG5ULRVw9yKCdQYX2JCbc_KjgOpREJ6A-e19rfbPzfkczYSjOwZiqETeIW0ys6_ZLpJz1Pa0fe6wxPGCvc7mNn9_poF5W9SezHmruLVv3B-bEEm3R9_fU74nz8SsahrkELNCapmKKGmDppIL6RsJPIHnturWCL46kat_FT-t_m6MDitW93guDDuZQPlWO-5mviRNA8V4lGxUyX8RvDU1QaLgC4AAL_UlYKlYCIkxwBC5wLfLO5583M1QZBfdechFswwW-3VzkQL88-ANdlxKAK9QftkIY4s5q7hoYvMBJWVpeLozu96oz9pxbUTY7iTTh8MBoacSIv1yV7ii5iE5r_zcCSF9yDMM3arD_gyUKMRst_BXWrHkhRmgp_8kE4Z1CwX6nG3wEm3vxNGtfTbB48-mS0]--></g></svg>