<?xml version="1.0" encoding="us-ascii" standalone="no"?><svg xmlns="http://www.w3.org/2000/svg" xmlns:xlink="http://www.w3.org/1999/xlink" contentStyleType="text/css" height="744px" preserveAspectRatio="none" style="width:1162px;height:744px;background:#FFFFFF;" version="1.1" viewBox="0 0 1162 744" width="1162px" zoomAndPan="magnify"><defs/><g><text fill="#000000" font-family="sans-serif" font-size="14" font-weight="bold" lengthAdjust="spacing" textLength="545.4375" x="307.7813" y="29.5332">Diagramme de S&#233;quence &#8212; Encoder une partie, appliquer l&#8217;ELO, sauvegarder</text><text fill="#000000" font-family="sans-serif" font-size="14" font-weight="bold" lengthAdjust="spacing" textLength="154" x="505.5" y="47.1426">(AddGameViewModel)</text><rect fill="#FFFFFF" height="457.2734" style="stroke:#181818;stroke-width:1.0;" width="10" x="267.5" y="187.5313"/><rect fill="#FFFFFF" height="30.3516" style="stroke:#181818;stroke-width:1.0;" width="10" x="528.5" y="217.8828"/><rect fill="#FFFFFF" height="214.4609" style="stroke:#181818;stroke-width:1.0;" width="10" x="704.5" y="339.2891"/><rect fill="#FFFFFF" height="30.3516" style="stroke:#181818;stroke-width:1.0;" width="10" x="808" y="278.5859"/><rect fill="#FFFFFF" height="30.3516" style="stroke:#181818;stroke-width:1.0;" width="10" x="913" y="584.1016"/><rect fill="none" height="79.0547" style="stroke:#000000;stroke-width:1.5;" width="493" x="663" y="445.3438"/><line style="stroke:#181818;stroke-width:0.5;stroke-dasharray:5.0,5.0;" x1="27" x2="27" y1="138.8281" y2="662.8047"/><line style="stroke:#181818;stroke-width:0.5;stroke-dasharray:5.0,5.0;" x1="272.5" x2="272.5" y1="138.8281" y2="662.8047"/><line style="stroke:#181818;stroke-width:0.5;stroke-dasharray:5.0,5.0;" x1="415.5" x2="415.5" y1="138.8281" y2="662.8047"/><line style="stroke:#181818;stroke-width:0.5;stroke-dasharray:5.0,5.0;" x1="533.5" x2="533.5" y1="138.8281" y2="662.8047"/><line style="stroke:#181818;stroke-width:0.5;stroke-dasharray:5.0,5.0;" x1="709" x2="709" y1="138.8281" y2="662.8047"/><line style="stroke:#181818;stroke-width:0.5;stroke-dasharray:5.0,5.0;" x1="813" x2="813" y1="138.8281" y2="662.8047"/><line style="stroke:#181818;stroke-width:0.5;stroke-dasharray:5.0,5.0;" x1="918" x2="918" y1="138.8281" y2="662.8047"/><line style="stroke:#181818;stroke-width:0.5;stroke-dasharray:5.0,5.0;" x1="1008" x2="1008" y1="138.8281" y2="662.8047"/><line style="stroke:#181818;stroke-width:0.5;stroke-dasharray:5.0,5.0;" x1="1103" x2="1103" y1="138.8281" y2="662.8047"/><text fill="#000000" font-family="sans-serif" font-size="14" lengthAdjust="spacing" textLength="39" x="5" y="135.752">Admin</text><ellipse cx="27.5" cy="69.7188" fill="#E2E2F0" rx="8" ry="8" style="stroke:#181818;stroke-width:0.5;"/><path d="M27.5,77.7188 L27.5,104.7188 M14.5,85.7188 L40.5,85.7188 M27.5,104.7188 L14.5,119.7188 M27.5,104.7188 L40.5,119.7188 " fill="none" style="stroke:#181818;stroke-width:0.5;"/><text fill="#000000" font-family="sans-serif" font-size="14" lengthAdjust="spacing" textLength="39" x="5" y="676.3379">Admin</text><ellipse cx="27.5" cy="687.9141" fill="#E2E2F0" rx="8" ry="8" style="stroke:#181818;stroke-width:0.5;"/><path d="M27.5,695.9141 L27.5,722.9141 M14.5,703.9141 L40.5,703.9141 M27.5,722.9141 L14.5,737.9141 M27.5,722.9141 L40.5,737.9141 " fill="none" style="stroke:#181818;stroke-width:0.5;"/><text fill="#000000" font-family="sans-serif" font-size="14" lengthAdjust="spacing" textLength="130" x="204.5" y="135.752">AddGameViewModel</text><path d="M252,93.2188 L252,117.2188 M252,105.2188 L269,105.2188 " fill="none" style="stroke:#181818;stroke-width:0.5;"/><ellipse cx="281" cy="105.2188" fill="#E2E2F0" rx="12" ry="12" style="stroke:#181818;stroke-width:0.5;"/><text fill="#000000" font-family="sans-serif" font-size="14" lengthAdjust="spacing" textLength="130" x="204.5" y="676.3379">AddGameViewModel</text><path d="M252,683.4141 L252,707.4141 M252,695.4141 L269,695.4141 " fill="none" style="stroke:#181818;stroke-width:0.5;"/><ellipse cx="281" cy="695.4141" fill="#E2E2F0" rx="12" ry="12" style="stroke:#181818;stroke-width:0.5;"/><text fill="#000000" font-family="sans-serif" font-size="14" lengthAdjust="spacing" textLength="125" x="350.5" y="135.752">Chess_Tournament</text><ellipse cx="416" cy="105.2188" fill="#E2E2F0" rx="12" ry="12" style="stroke:#181818;stroke-width:0.5;"/><line style="stroke:#181818;stroke-width:0.5;" x1="404" x2="428" y1="119.2188" y2="119.2188"/><text fill="#000000" font-family="sans-serif" font-size="14" lengthAdjust="spacing" textLength="125" x="350.5" y="676.3379">Chess_Tournament</text><ellipse cx="416" cy="695.4141" fill="#E2E2F0" rx="12" ry="12" style="stroke:#181818;stroke-width:0.5;"/><line style="stroke:#181818;stroke-width:0.5;" x1="404" x2="428" y1="709.4141" y2="709.4141"/><text fill="#000000" font-family="sans-serif" font-size="14" lengthAdjust="spacing" textLength="78" x="491.5" y="135.752">ChessGame</text><ellipse cx="533.5" cy="105.2188" fill="#E2E2F0" rx="12" ry="12" style="stroke:#181818;stroke-width:0.5;"/><line style="stroke:#181818;stroke-width:0.5;" x1="521.5" x2="545.5" y1="119.2188" y2="119.2188"/><text fill="#000000" font-family="sans-serif" font-size="14" lengthAdjust="spacing" textLength="78" x="491.5" y="676.3379">ChessGame</text><ellipse cx="533.5" cy="695.4141" fill="#E2E2F0" rx="12" ry="12" style="stroke:#181818;stroke-width:0.5;"/><line style="stroke:#181818;stroke-width:0.5;" x1="521.5" x2="545.5" y1="709.4141" y2="709.4141"/><text fill="#000000" font-family="sans-serif" font-size="14" lengthAdjust="spacing" textLength="67" x="673" y="135.752">EloService</text><ellipse cx="709.5" cy="105.2188" fill="#E2E2F0" rx="12" ry="12" style="stroke:#181818;stroke-width:0.5;"/><polygon fill="#181818" points="705.5,93.2188,711.5,88.2188,709.5,93.2188,711.5,98.2188,705.5,93.2188" style="stroke:#181818;stroke-width:1.0;"/><text fill="#000000" font-family="sans-serif" font-size="14" lengthAdjust="spacing" textLength="67" x="673" y="676.3379">EloService</text><ellipse cx="709.5" cy="695.4141" fill="#E2E2F0" rx="12" ry="12" style="stroke:#181818;stroke-width:0.5;"/><polygon fill="#181818" points="705.5,683.4141,711.5,678.4141,709.5,683.4141,711.5,688.4141,705.5,683.4141" style="stroke:#181818;stroke-width:1.0;"/><text fill="#000000" font-family="sans-serif" font-size="14" lengthAdjust="spacing" textLength="108" x="756" y="135.752">GameFileService</text><ellipse cx="813" cy="105.2188" fill="#E2E2F0" rx="12" ry="12" style="stroke:#181818;stroke-width:0.5;"/><polygon fill="#181818" points="809,93.2188,815,88.2188,813,93.2188,815,98.2188,809,93.2188" style="stroke:#181818;stroke-width:1.0;"/><text fill="#000000" font-family="sans-serif" font-size="14" lengthAdjust="spacing" textLength="108" x="756" y="676.3379">GameFileService</text><ellipse cx="813" cy="695.4141" fill="#E2E2F0" rx="12" ry="12" style="stroke:#181818;stroke-width:0.5;"/><polygon fill="#181818" points="809,683.4141,815,678.4141,813,683.4141,815,688.4141,809,683.4141" style="stroke:#181818;stroke-width:1.0;"/><text fill="#000000" font-family="sans-serif" font-size="14" lengthAdjust="spacing" textLength="70" x="880" y="135.752">FileService</text><ellipse cx="918" cy="105.2188" fill="#E2E2F0" rx="12" ry="12" style="stroke:#181818;stroke-width:0.5;"/><polygon fill="#181818" points="914,93.2188,920,88.2188,918,93.2188,920,98.2188,914,93.2188" style="stroke:#181818;stroke-width:1.0;"/><text fill="#000000" font-family="sans-serif" font-size="14" lengthAdjust="spacing" textLength="70" x="880" y="676.3379">FileService</text><ellipse cx="918" cy="695.4141" fill="#E2E2F0" rx="12" ry="12" style="stroke:#181818;stroke-width:0.5;"/><polygon fill="#181818" points="914,683.4141,920,678.4141,918,683.4141,920,688.4141,914,683.4141" style="stroke:#181818;stroke-width:1.0;"/><text fill="#000000" font-family="sans-serif" font-size="14" lengthAdjust="spacing" textLength="79" x="966" y="135.752">Player1 (P1)</text><ellipse cx="1008.5" cy="105.2188" fill="#E2E2F0" rx="12" ry="12" style="stroke:#181818;stroke-width:0.5;"/><line style="stroke:#181818;stroke-width:0.5;" x1="996.5" x2="1020.5" y1="119.2188" y2="119.2188"/><text fill="#000000" font-family="sans-serif" font-size="14" lengthAdjust="spacing" textLength="79" x="966" y="676.3379">Player1 (P1)</text><ellipse cx="1008.5" cy="695.4141" fill="#E2E2F0" rx="12" ry="12" style="stroke:#181818;stroke-width:0.5;"/><line style="stroke:#181818;stroke-width:0.5;" x1="996.5" x2="1020.5" y1="709.4141" y2="709.4141"/><text fill="#000000" font-family="sans-serif" font-size="14" lengthAdjust="spacing" textLength="79" x="1061" y="135.752">Player2 (P2)</text><ellipse cx="1103.5" cy="105.2188" fill="#E2E2F0" rx="12" ry="12" style="stroke:#181818;stroke-width:0.5;"/><line style="stroke:#181818;stroke-width:0.5;" x1="1091.5" x2="1115.5" y1="119.2188" y2="119.2188"/><text fill="#000000" font-family="sans-serif" font-size="14" lengthAdjust="spacing" textLength="79" x="1061" y="676.3379">Player2 (P2)</text><ellipse cx="1103.5" cy="695.4141" fill="#E2E2F0" rx="12" ry="12" style="stroke:#181818;stroke-width:0.5;"/><line style="stroke:#181818;stroke-width:0.5;" x1="1091.5" x2="1115.5" y1="709.4141" y2="709.4141"/><rect fill="#FFFFFF" height="457.2734" style="stroke:#181818;stroke-width:1.0;" width="10" x="267.5" y="187.5313"/><rect fill="#FFFFFF" height="30.3516" style="stroke:#181818;stroke-width:1.0;" width="10" x="528.5" y="217.8828"/><rect fill="#FFFFFF" height="214.4609" style="stroke:#181818;stroke-width:1.0;" width="10" x="704.5" y="339.2891"/><rect fill="#FFFFFF" height="30.3516" style="stroke:#181818;stroke-width:1.0;" width="10" x="808" y="278.5859"/><rect fill="#FFFFFF" height="30.3516" style="stroke:#181818;stroke-width:1.0;" width="10" x="913" y="584.1016"/><polygon fill="#181818" points="255.5,183.5313,265.5,187.5313,255.5,191.5313,259.5,187.5313" style="stroke:#181818;stroke-width:1.0;"/><line style="stroke:#181818;stroke-width:1.0;" x1="27.5" x2="261.5" y1="187.5313" y2="187.5313"/><text fill="#000000" font-family="sans-serif" font-size="13" lengthAdjust="spacing" textLength="109" x="34.5" y="166.3232">Encoder une partie</text><text fill="#000000" font-family="sans-serif" font-size="13" lengthAdjust="spacing" textLength="169" x="34.5" y="182.6748">(P1, P2, result, moves, color)</text><polygon fill="#181818" points="516.5,213.8828,526.5,217.8828,516.5,221.8828,520.5,217.8828" style="stroke:#181818;stroke-width:1.0;"/><line style="stroke:#181818;stroke-width:1.0;" x1="277.5" x2="522.5" y1="217.8828" y2="217.8828"/><text fill="#000000" font-family="sans-serif" font-size="13" lengthAdjust="spacing" textLength="119" x="284.5" y="213.0264">new ChessGame(...)</text><polygon fill="#181818" points="288.5,244.2344,278.5,248.2344,288.5,252.2344,284.5,248.2344" style="stroke:#181818;stroke-width:1.0;"/><line style="stroke:#181818;stroke-width:1.0;stroke-dasharray:2.0,2.0;" x1="282.5" x2="532.5" y1="248.2344" y2="248.2344"/><text fill="#000000" font-family="sans-serif" font-size="13" lengthAdjust="spacing" textLength="125" x="294.5" y="243.3779">ChessGame instance</text><polygon fill="#181818" points="796,274.5859,806,278.5859,796,282.5859,800,278.5859" style="stroke:#181818;stroke-width:1.0;"/><line style="stroke:#181818;stroke-width:1.0;" x1="277.5" x2="802" y1="278.5859" y2="278.5859"/><text fill="#000000" font-family="sans-serif" font-size="13" lengthAdjust="spacing" textLength="89" x="284.5" y="273.7295">Savegame(G,T)</text><polygon fill="#181818" points="288.5,304.9375,278.5,308.9375,288.5,312.9375,284.5,308.9375" style="stroke:#181818;stroke-width:1.0;"/><line style="stroke:#181818;stroke-width:1.0;stroke-dasharray:2.0,2.0;" x1="282.5" x2="812" y1="308.9375" y2="308.9375"/><text fill="#000000" font-family="sans-serif" font-size="13" lengthAdjust="spacing" textLength="14" x="294.5" y="304.0811">ok</text><polygon fill="#181818" points="692.5,335.2891,702.5,339.2891,692.5,343.2891,696.5,339.2891" style="stroke:#181818;stroke-width:1.0;"/><line style="stroke:#181818;stroke-width:1.0;" x1="277.5" x2="698.5" y1="339.2891" y2="339.2891"/><text fill="#000000" font-family="sans-serif" font-size="13" lengthAdjust="spacing" textLength="51" x="284.5" y="334.4326">Apply(G)</text><polygon fill="#181818" points="544.5,365.6406,534.5,369.6406,544.5,373.6406,540.5,369.6406" style="stroke:#181818;stroke-width:1.0;"/><line style="stroke:#181818;stroke-width:1.0;" x1="538.5" x2="703.5" y1="369.6406" y2="369.6406"/><text fill="#000000" font-family="sans-serif" font-size="13" lengthAdjust="spacing" textLength="147" x="550.5" y="364.7842">get Result (win|lose|draw)</text><polygon fill="#181818" points="996.5,395.9922,1006.5,399.9922,996.5,403.9922,1000.5,399.9922" style="stroke:#181818;stroke-width:1.0;"/><line style="stroke:#181818;stroke-width:1.0;" x1="714.5" x2="1002.5" y1="399.9922" y2="399.9922"/><text fill="#000000" font-family="sans-serif" font-size="13" lengthAdjust="spacing" textLength="48" x="721.5" y="395.1357">read Elo</text><polygon fill="#181818" points="1091.5,426.3438,1101.5,430.3438,1091.5,434.3438,1095.5,430.3438" style="stroke:#181818;stroke-width:1.0;"/><line style="stroke:#181818;stroke-width:1.0;" x1="714.5" x2="1097.5" y1="430.3438" y2="430.3438"/><text fill="#000000" font-family="sans-serif" font-size="13" lengthAdjust="spacing" textLength="48" x="721.5" y="425.4873">read Elo</text><path d="M663,445.3438 L724,445.3438 L724,453.6953 L714,463.6953 L663,463.6953 L663,445.3438 " fill="#EEEEEE" style="stroke:#000000;stroke-width:1.5;"/><rect fill="none" height="79.0547" style="stroke:#000000;stroke-width:1.5;" width="493" x="663" y="445.3438"/><text fill="#000000" font-family="sans-serif" font-size="13" font-weight="bold" lengthAdjust="spacing" textLength="16" x="678" y="459.8389">alt</text><text fill="#000000" font-family="sans-serif" font-size="11" font-weight="bold" lengthAdjust="spacing" textLength="174" x="739" y="458.7627">[Player1Win / Player2Win / Draw]</text><polygon fill="#181818" points="996.5,482.0469,1006.5,486.0469,996.5,490.0469,1000.5,486.0469" style="stroke:#181818;stroke-width:1.0;"/><line style="stroke:#181818;stroke-width:1.0;" x1="714.5" x2="1002.5" y1="486.0469" y2="486.0469"/><text fill="#000000" font-family="sans-serif" font-size="13" lengthAdjust="spacing" textLength="62" x="721.5" y="481.1904">update Elo</text><polygon fill="#181818" points="1091.5,512.3984,1101.5,516.3984,1091.5,520.3984,1095.5,516.3984" style="stroke:#181818;stroke-width:1.0;"/><line style="stroke:#181818;stroke-width:1.0;" x1="714.5" x2="1097.5" y1="516.3984" y2="516.3984"/><text fill="#000000" font-family="sans-serif" font-size="13" lengthAdjust="spacing" textLength="62" x="721.5" y="511.542">update Elo</text><polygon fill="#181818" points="288.5,549.75,278.5,553.75,288.5,557.75,284.5,553.75" style="stroke:#181818;stroke-width:1.0;"/><line style="stroke:#181818;stroke-width:1.0;stroke-dasharray:2.0,2.0;" x1="282.5" x2="708.5" y1="553.75" y2="553.75"/><text fill="#000000" font-family="sans-serif" font-size="13" lengthAdjust="spacing" textLength="92" x="294.5" y="548.8936">updated players</text><polygon fill="#181818" points="901,580.1016,911,584.1016,901,588.1016,905,584.1016" style="stroke:#181818;stroke-width:1.0;"/><line style="stroke:#181818;stroke-width:1.0;" x1="277.5" x2="907" y1="584.1016" y2="584.1016"/><text fill="#000000" font-family="sans-serif" font-size="13" lengthAdjust="spacing" textLength="137" x="284.5" y="579.2451">SavePlayers(allPlayers)</text><polygon fill="#181818" points="288.5,610.4531,278.5,614.4531,288.5,618.4531,284.5,614.4531" style="stroke:#181818;stroke-width:1.0;"/><line style="stroke:#181818;stroke-width:1.0;stroke-dasharray:2.0,2.0;" x1="282.5" x2="917" y1="614.4531" y2="614.4531"/><text fill="#000000" font-family="sans-serif" font-size="13" lengthAdjust="spacing" textLength="14" x="294.5" y="609.5967">ok</text><polygon fill="#181818" points="38.5,640.8047,28.5,644.8047,38.5,648.8047,34.5,644.8047" style="stroke:#181818;stroke-width:1.0;"/><line style="stroke:#181818;stroke-width:1.0;stroke-dasharray:2.0,2.0;" x1="32.5" x2="271.5" y1="644.8047" y2="644.8047"/><text fill="#000000" font-family="sans-serif" font-size="13" lengthAdjust="spacing" textLength="216" x="44.5" y="639.9482">Confirmation (sauvegarder + elo MAJ)</text><!--SRC=[TPFFZjCm4CRlVefHJud85YL73aWLsqP2L4IaMYv8oCH3iN3iO3kjAkrX7u8BZy1py2Rx98ppftKhkCN-VVuyyutZfLS8zvBlBMzR185G__dzeqVT83m__OIrRen02xr6wBZr4ZFWNQSaQIoevwTVwtVlCt2yF-2Uso3zf9EL42LlyK7YSKl7LSeORxoni1Ajr8nzCRqMt9vWSQjS07Vmi6MelVJ4ttn3vpxlJ6yroRGV-EuQ1uDXlsIDqTuQ1OkrCZNQWsn6GiiB2_gDL1WBoarz4Tn2OlE5bU8dj3aaLPuEhCflM46ic5Z1sD0ntBscfk3LF-AajAey8sa65bslV0QjEQ3Be37As3G49m_SOqY5aGbPbUIayGZdxfFbSXafIrR2tNpbMGHIEyzfi4nW99qzDpM9Qnx6I8PbjeiDAO4WE9kQxrScX2SR2fhmYbx8AIaZXp20mARgz-ZXmz0k94Uf7vLn-2WiFwQpgif9Pf6B-6XLn9kCq_5f81yfv9VJeXWNzsJ706A_lXDpCHTGN0FKOhnkxdLa0hh1tCMD3rMCZP_Z6sjm2LTg-enYeA3-7sD8SN0ZF3uRcfxHNwLjkPT6GnB_PYy0gShjwcqQUz0Z-Gi0]--></g></svg>